<svg width="20" height="20" viewBox="0 0 20 20" fill="none" xmlns="http://www.w3.org/2000/svg">
<circle cx="10" cy="10" r="10" fill="#9747FF"/>
<path d="M13.8889 5.55554V8.88888M13.8889 8.88888C13.2752 8.88888 12.7778 9.38634 12.7778 9.99999C12.7778 10.6136 13.2752 11.1111 13.8889 11.1111M13.8889 8.88888C14.5025 8.88888 15 9.38634 15 9.99999C15 10.6136 14.5025 11.1111 13.8889 11.1111M13.8889 11.1111V14.4444M10 5.55554V12.2222M10 12.2222C9.38635 12.2222 8.88889 12.7197 8.88889 13.3333C8.88889 13.947 9.38635 14.4444 10 14.4444C10.6136 14.4444 11.1111 13.947 11.1111 13.3333C11.1111 12.7197 10.6136 12.2222 10 12.2222ZM6.11111 7.77776V14.4444M6.11111 7.77776C6.72476 7.77776 7.22222 7.2803 7.22222 6.66665C7.22222 6.053 6.72476 5.55554 6.11111 5.55554C5.49746 5.55554 5 6.053 5 6.66665C5 7.2803 5.49746 7.77776 6.11111 7.77776Z" stroke="white" stroke-width="1.5" stroke-linecap="round"/>
</svg>
