<svg width="1737" height="1216" viewBox="0 0 1737 1216" fill="none" xmlns="http://www.w3.org/2000/svg">
<path d="M1620.7 604.276C1629.45 610.323 1631.93 622.159 1626.36 631.215L1358.51 1066.19C1349.04 1081.58 1325.62 1077.5 1321.91 1059.81L1169.53 334.41C1165.81 316.722 1185.6 303.57 1200.47 313.846L1620.7 604.276Z" fill="black" fill-opacity="0.1"/>
<path d="M1082.81 1008.12C1085.56 1022.94 1071.56 1035.37 1057.17 1030.87L699.719 919.045C684.87 914.399 680.778 895.324 692.415 884.998L981.33 628.61C992.967 618.284 1011.42 624.614 1014.27 639.909L1082.81 1008.12Z" fill="black" fill-opacity="0.1"/>
<path d="M854.065 475.223C868.047 480.857 871.007 499.346 859.482 509.064L521.019 794.456C509.125 804.485 490.837 797.69 488.378 782.327L416.199 331.47C413.739 316.108 428.991 303.943 443.422 309.758L854.065 475.223Z" fill="black" fill-opacity="0.1"/>
<path fill-rule="evenodd" clip-rule="evenodd" d="M296.22 1028.68C310.333 1033.98 325.011 1022.35 323.085 1007.4L284.43 707.339C282.442 691.909 264.371 684.557 252.175 694.217L7.58671 887.956C-4.60897 897.616 -1.58944 916.89 12.9762 922.358L296.22 1028.68Z" fill="black" fill-opacity="0.1"/>
<path fill-rule="evenodd" clip-rule="evenodd" d="M1672.76 346.544C1685.3 354.909 1702.24 346.922 1703.76 331.924L1735.09 23.0235C1736.66 7.54479 1720.73 -3.72037 1706.66 2.91644L1417.04 139.514C1402.97 146.151 1401.53 165.607 1414.48 174.241L1672.76 346.544Z" fill="black" fill-opacity="0.1"/>
</svg>
