<svg width="1736" height="1076" viewBox="0 0 1736 1076" fill="none" xmlns="http://www.w3.org/2000/svg">
<path d="M1621.19 604.276C1629.94 610.323 1632.43 622.159 1626.85 631.215L1359.01 1066.19C1349.53 1081.58 1326.12 1077.5 1322.4 1059.81L1170.02 334.41C1166.3 316.722 1186.1 303.57 1200.96 313.846L1621.19 604.276Z" fill="black" fill-opacity="0.1"/>
<path d="M323.579 1007.4C325.505 1022.35 310.827 1033.98 296.714 1028.68L13.47 922.358C-1.09573 916.89 -4.11525 897.616 8.08045 887.956L252.669 694.217C264.865 684.557 282.936 691.909 284.923 707.339L323.579 1007.4Z" fill="black" fill-opacity="0.1"/>
<path d="M1083.3 1008.12C1086.06 1022.94 1072.05 1035.37 1057.67 1030.87L700.212 919.045C685.364 914.4 681.272 895.324 692.909 884.998L981.824 628.61C993.461 618.284 1011.91 624.614 1014.76 639.91L1083.3 1008.12Z" fill="black" fill-opacity="0.1"/>
<path d="M1704.25 331.924C1702.73 346.922 1685.8 354.909 1673.26 346.544L1414.97 174.241C1402.03 165.607 1403.47 146.151 1417.54 139.514L1707.15 2.91645C1721.23 -3.72036 1737.15 7.54479 1735.58 23.0235L1704.25 331.924Z" fill="black" fill-opacity="0.1"/>
<path d="M854.559 475.223C868.541 480.857 871.501 499.346 859.976 509.064L521.513 794.456C509.619 804.485 491.331 797.69 488.872 782.327L416.693 331.47C414.233 316.108 429.485 303.943 443.916 309.758L854.559 475.223Z" fill="black" fill-opacity="0.1"/>
</svg>
