<svg id="ek7coQ8CgUM1" xmlns="http://www.w3.org/2000/svg" xmlns:xlink="http://www.w3.org/1999/xlink" viewBox="0 0 300 320" shape-rendering="geometricPrecision" text-rendering="geometricPrecision"><line x1="-16" y1="0" x2="16" y2="0" transform="matrix(-2.674487-1.544116 0.60557-1.048878 192.61188 190.869095)" fill="none" stroke="#000" stroke-width="3"/><line x1="-16" y1="0" x2="16" y2="0" transform="matrix(0 3.086941-1 0 149.99993 116.772204)" fill="none" stroke="#000" stroke-width="3"/><line x1="-16" y1="0" x2="16" y2="0" transform="matrix(-2.674487 1.544116-.60557-1.048878 107.028284 190.869096)" fill="none" stroke="#000" stroke-width="3"/><path d="M279.90372,224.99997L171.34993,287.67353v-49.35002l65.81542-37.99855v-75.99708l42.73837-24.67501v125.3471ZM149.99993,49.35002L84.18444,87.34861L41.44607,62.6736L149.99993,0L258.55374,62.67357L215.81537,87.34858L149.99993,49.35002ZM62.83451,200.32496l65.81542,37.99855v49.35002L20.09614,224.99997v-125.34705l42.73837,24.67501v75.99703Z" transform="translate(0 16.163235)" stroke="#000" stroke-width="3"/></svg>
